<?xml version="1.0" encoding="UTF-8" standalone="no"?>
<!DOCTYPE svg PUBLIC "-//W3C//DTD SVG 1.1//EN" "http://www.w3.org/Graphics/SVG/1.1/DTD/svg11.dtd">
<svg width="100%" height="100%" viewBox="0 0 500 500" version="1.1" xmlns="http://www.w3.org/2000/svg" xmlns:xlink="http://www.w3.org/1999/xlink" xml:space="preserve" xmlns:serif="http://www.serif.com/" style="fill-rule:evenodd;clip-rule:evenodd;stroke-linecap:round;stroke-linejoin:round;stroke-miterlimit:1.5;">
    <g>
        <g transform="matrix(0.84482,0,0,0.84482,38.795,250)">
            <circle cx="125" cy="125" r="125" style="fill:none;stroke:rgb(43,63,65);stroke-width:21.31px;"/>
        </g>
        <g transform="matrix(0.84482,0,0,0.84482,250,38.795)">
            <circle cx="125" cy="125" r="125" style="fill:none;stroke:rgb(43,63,65);stroke-width:21.31px;"/>
        </g>
        <g transform="matrix(0.84482,0,0,0.84482,38.795,38.795)">
            <path d="M125,250C56.011,250 0,193.989 0,125C0,56.011 56.011,0 125,0C193.989,0 250,56.011 250,125C250,193.989 306.011,250 375,250C443.989,250 500,306.011 500,375C500,443.989 443.989,500 375,500C306.011,500 250,443.989 250,375C250,306.011 193.989,250 125,250Z" style="fill:none;stroke:rgb(43,63,65);stroke-width:21.31px;"/>
        </g>
    </g>
</svg>
