<?xml version="1.0" encoding="UTF-8" standalone="no"?>
<!DOCTYPE svg PUBLIC "-//W3C//DTD SVG 1.1//EN" "http://www.w3.org/Graphics/SVG/1.1/DTD/svg11.dtd">
<svg width="100%" height="100%" viewBox="0 0 800 800" version="1.1" xmlns="http://www.w3.org/2000/svg" xmlns:xlink="http://www.w3.org/1999/xlink" xml:space="preserve" xmlns:serif="http://www.serif.com/" style="fill-rule:evenodd;clip-rule:evenodd;">
    <g transform="matrix(33.3333,0,0,33.3333,0,0)">
        <path d="M21,12C21,16.971 16.971,21 12,21C7.029,21 3,16.971 3,12C3,7.029 7.029,3 12,3C16.971,3 21,7.029 21,12Z" style="fill:none;fill-rule:nonzero;stroke:white;stroke-width:2px;"/>
    </g>
    <g transform="matrix(33.3333,0,0,33.3333,0,0)">
        <path d="M10.9,8.8L10.658,8.662C10.142,8.367 9.5,8.739 9.5,9.333L9.5,14.667C9.5,15.261 10.142,15.633 10.658,15.339L10.9,15.2L15.1,12.8C15.719,12.446 15.719,11.554 15.1,11.2L10.9,8.8Z" style="fill:none;fill-rule:nonzero;stroke:white;stroke-width:2px;stroke-linecap:round;stroke-linejoin:round;"/>
    </g>
</svg>
