<?xml version="1.0" encoding="iso-8859-1"?>
<!-- Generator: Adobe Illustrator 25.2.1, SVG Export Plug-In . SVG Version: 6.00 Build 0)  -->
<svg version="1.1" id="Layer_1" xmlns="http://www.w3.org/2000/svg" xmlns:xlink="http://www.w3.org/1999/xlink" x="0px" y="0px"
	 viewBox="0 0 32 32" style="enable-background:new 0 0 32 32;" xml:space="preserve">
<polyline style="fill:none;stroke:#000000;stroke-width:2;stroke-miterlimit:10;" points="28.744,10.696 16,20.3 3.15,10.616 "/>
<path style="fill:none;stroke:#000000;stroke-width:2;stroke-miterlimit:10;" d="M9,7.781V26H5c-1.105,0-2-0.895-2-2V9
	c0-1.657,1.343-3,3-3l0,0c0.678,0,1.308,0.221,1.81,0.6L16,12.77l8.19-6.17C24.691,6.226,25.327,6,26,6l0,0c1.657,0,3,1.343,3,3v15
	c0,1.105-0.895,2-2,2h-4V7.673"/>
</svg>